<?xml version="1.0" encoding="utf-8"?><!-- Uploaded to: SVG Repo, www.svgrepo.com, Generator: SVG Repo Mixer Tools -->
<svg width="800px" height="800px" viewBox="0 0 24 24" id="Layer_1" data-name="Layer 1" xmlns="http://www.w3.org/2000/svg"><defs><linearGradient id="grad1" x1="0%" y1="0%" x2="100%" y2="100%"><stop offset="10%" style="stop-color:#f59e0b" /><stop offset="50%" style="stop-color:#3b82f6" /><stop offset="90%" style="stop-color:#14b8a6" /></linearGradient><style>.cls-1{fill:none;stroke:white;stroke-miterlimit:10;stroke-width:1.89px;background: red;}</style></defs><rect width="24" height="24" rx="6" fill="url(#grad1)"/><path class="cls-1" d="M7.28,22.84l-.52-.52A11.13,11.13,0,0,1,3.5,14.45h0A4.84,4.84,0,0,1,4.92,11h0A4.79,4.79,0,0,1,8.34,9.62h1.77A1.89,1.89,0,0,1,12,11.5h0a1.89,1.89,0,0,1-1.89,1.89H7.28"/><path class="cls-1" d="M7.28,13.39l.34.14A7,7,0,0,1,12,20h0"/><path class="cls-1" d="M17.24,22.32a11.13,11.13,0,0,0,3.26-7.87"/><path class="cls-1" d="M6,9.62,4.84,3.38A1.9,1.9,0,0,1,6.37,1.19a1.84,1.84,0,0,1,.33,0A1.89,1.89,0,0,1,8.56,2.73l1.23,7"/><path class="cls-1" d="M10.37,10.05l1.29-7.32a1.89,1.89,0,0,1,1.86-1.57,1.84,1.84,0,0,1,.33,0,1.9,1.9,0,0,1,1.53,2.19L14.26,9.71"/><rect class="cls-1" x="12.94" y="9.62" width="3.78" height="6.61" rx="1.89"/><rect class="cls-1" x="16.72" y="10.56" width="3.78" height="5.67" rx="1.89"/></svg>